<?xml version="1.0" standalone="no"?><!DOCTYPE svg PUBLIC "-//W3C//DTD SVG 1.1//EN" "http://www.w3.org/Graphics/SVG/1.1/DTD/svg11.dtd"><svg t="1535083566735" class="icon" style="" viewBox="0 0 1024 1024" version="1.1" xmlns="http://www.w3.org/2000/svg" p-id="8059" xmlns:xlink="http://www.w3.org/1999/xlink" width="200" height="200"><defs><style type="text/css"></style></defs><path d="M128 191.488q-26.624 0-45.056-18.944t-18.432-45.568 18.432-45.056 45.056-18.432l768 0q26.624 0 45.056 18.432t18.432 45.056-18.432 45.568-45.056 18.944l-768 0zM768 319.488q26.624 0 45.056 18.432t18.432 45.056-18.432 45.568-45.056 18.944l-512 0q-26.624 0-45.056-18.944t-18.432-45.568 18.432-45.056 45.056-18.432l512 0zM896 574.464q26.624 0 45.056 18.944t18.432 45.568-18.432 45.056-45.056 18.432l-768 0q-26.624 0-45.056-18.432t-18.432-45.056 18.432-45.568 45.056-18.944l768 0zM768 830.464q26.624 0 45.056 18.944t18.432 45.568-18.432 45.056-45.056 18.432l-512 0q-26.624 0-45.056-18.432t-18.432-45.056 18.432-45.568 45.056-18.944l512 0z" p-id="8060"></path></svg>