<?xml version="1.0" standalone="no"?><!DOCTYPE svg PUBLIC "-//W3C//DTD SVG 1.1//EN" "http://www.w3.org/Graphics/SVG/1.1/DTD/svg11.dtd"><svg t="1535083563914" class="icon" style="" viewBox="0 0 1024 1024" version="1.1" xmlns="http://www.w3.org/2000/svg" p-id="7937" xmlns:xlink="http://www.w3.org/1999/xlink" width="200" height="200"><defs><style type="text/css"></style></defs><path d="M896 63.488q26.624 0 45.056 18.432t18.432 45.056-18.432 45.056-45.056 18.432l-704.512 0q-26.624 0-45.056-18.432t-18.432-45.056 18.432-45.056 45.056-18.432l704.512 0zM191.488 447.488q-26.624 0-45.056-18.432t-18.432-45.056 18.432-46.08 45.056-19.456l447.488 0q26.624 0 45.056 19.456t18.432 46.08-18.432 45.056-45.056 18.432l-447.488 0zM831.488 575.488q27.648 0 46.08 18.432t18.432 45.056-18.432 45.056-46.08 18.432l-640 0q-26.624 0-45.056-18.432t-18.432-45.056 18.432-45.056 45.056-18.432l640 0zM575.488 831.488q26.624 0 45.056 18.944t18.432 45.568-18.432 45.056-45.056 18.432l-384 0q-26.624 0-45.056-18.432t-18.432-45.056 18.432-45.568 45.056-18.944l384 0z" p-id="7938"></path></svg>