<?xml version="1.0" standalone="no"?><!DOCTYPE svg PUBLIC "-//W3C//DTD SVG 1.1//EN" "http://www.w3.org/Graphics/SVG/1.1/DTD/svg11.dtd"><svg t="1535464791748" class="icon" style="" viewBox="0 0 1024 1024" version="1.1" xmlns="http://www.w3.org/2000/svg" p-id="7909" xmlns:xlink="http://www.w3.org/1999/xlink" width="200" height="200"><defs><style type="text/css"></style></defs><path d="M849.96171 312.424592l112.190175-62.189388-28.0478-50.876738-134.633327 73.482595c-78.536704-39.564088-173.889399-73.482595-286.081621-73.482595C255.354294 199.357444 64.625368 380.260583 64.625368 470.703455c0 39.564088 44.88528 107.402125 112.191198 158.28091L64.625368 691.170682l28.048823 50.878784 140.237975-79.148641c78.536704 45.230134 173.892469 79.148641 280.475949 79.148641 263.642562 0 448.76377-186.549743 448.76377-271.346011C962.151885 425.472298 922.893766 363.302353 849.96171 312.424592L849.96171 312.424592zM300.218084 470.703455c0-124.360356 95.375208-220.468251 218.777749-220.468251 72.930009 0 134.629233 33.918507 173.889399 90.441848l-72.910567 39.584554c-28.048823-33.918507-67.327408-50.876738-106.58655-50.876738-78.536704 0-140.236951 62.168921-140.236951 141.319609 0 16.95823 5.605671 28.27088 5.605671 45.231157l-67.307965 39.565111C305.844222 527.225773 300.218084 498.974335 300.218084 470.703455L300.218084 470.703455zM513.388115 691.170682c-72.932056 0-134.63128-33.917484-173.891446-90.437755l67.306942-39.588647c28.046776 28.272927 61.699224 50.877761 106.58348 50.877761 78.537727 0 140.237975-62.170968 140.237975-141.319609 0-16.960277 0-28.272927-5.606695-39.565111l72.913637-39.584554c5.626137 22.626323 11.230786 50.876738 11.230786 79.149665C732.163817 595.063811 631.186008 691.170682 513.388115 691.170682L513.388115 691.170682zM513.388115 691.170682" p-id="7910"></path></svg>