<?xml version="1.0" standalone="no"?><!DOCTYPE svg PUBLIC "-//W3C//DTD SVG 1.1//EN" "http://www.w3.org/Graphics/SVG/1.1/DTD/svg11.dtd"><svg t="1535464787616" class="icon" style="" viewBox="0 0 1024 1024" version="1.1" xmlns="http://www.w3.org/2000/svg" p-id="7790" xmlns:xlink="http://www.w3.org/1999/xlink" width="200" height="200"><defs><style type="text/css"></style></defs><path d="M514.065544 199.394283c-247.474324 0-448.084295 189.358719-448.084295 271.309172 0 82.20935 200.60997 271.309172 448.084295 271.309172 247.475348 0 448.086341-189.160197 448.086341-271.309172C962.151885 388.057153 761.540891 199.394283 514.065544 199.394283L514.065544 199.394283zM514.396071 674.349575c-123.880425-0.457418-224.459145-86.661755-224.459145-203.626677 0-117.024274 98.740862-204.120934 222.620263-203.40769 123.749442 0.73678 225.988987 86.50212 226.03299 203.406666C738.612693 587.768661 638.27445 674.786527 514.396071 674.349575L514.396071 674.349575zM514.263042 334.99975c-82.418105 0-149.236929 60.768015-149.236929 135.743614 0 74.955132 66.819848 135.742591 149.236929 135.742591 82.418105 0 149.237953-60.787458 149.237953-135.742591C663.500994 395.767765 596.681146 334.99975 514.263042 334.99975L514.263042 334.99975zM514.263042 334.99975" p-id="7791"></path></svg>